<svg width="80" height="70" viewBox="0 0 80 70" fill="none" xmlns="http://www.w3.org/2000/svg">
<path d="M39.7488 40.3635V69.0457L8.71484 55.5839L8.86288 27.0469L39.7488 40.3635Z" fill="#FF8585"/>
<path d="M39.749 40.3923V69.0493L70.632 56.0525V27.1797L39.749 40.3923Z" fill="#FEA3A3"/>
<path d="M39.7488 40.3704L70.7828 27.3163L39.9926 13.6094L8.71484 26.9899L39.7488 40.3704Z" fill="#DC4949"/>
<path d="M0.239905 34.1453L31.4715 49.3697C31.5555 49.4106 31.6504 49.4227 31.7419 49.4041C31.8333 49.3855 31.9162 49.3373 31.9777 49.2669L39.7487 40.3649L8.71475 26.9844L0.1704 33.4183C0.111976 33.4623 0.0657957 33.5207 0.0362966 33.5877C0.0067975 33.6548 -0.00502957 33.7284 0.00195003 33.8014C0.00892963 33.8744 0.0344811 33.9444 0.0761522 34.0046C0.117823 34.0648 0.174213 34.1133 0.239905 34.1453Z" fill="#FB6B6B"/>
<path d="M70.783 27.3125L79.402 35.1382C79.4547 35.186 79.4946 35.2461 79.5182 35.3133C79.5418 35.3804 79.5483 35.4524 79.5372 35.5227C79.526 35.593 79.4976 35.6594 79.4545 35.7159C79.4113 35.7724 79.3548 35.8172 79.29 35.8462L48.4435 49.6719C48.3611 49.7088 48.2692 49.7186 48.181 49.6996C48.0928 49.6807 48.0129 49.6342 47.9527 49.5667L39.749 40.3667L70.783 27.3125Z" fill="#FB6B6B"/>
<path d="M39.9922 13.6039L70.8688 27.3108L75.3093 26.2772C75.3966 26.2568 75.4753 26.2094 75.5342 26.1415C75.5931 26.0736 75.6292 25.9889 75.6373 25.8992C75.6454 25.8096 75.6251 25.7196 75.5794 25.6422C75.5336 25.5648 75.4647 25.5039 75.3825 25.4681L47.1884 13.1993C47.1267 13.1725 47.0596 13.1607 46.9926 13.1649L39.9922 13.6039Z" fill="#FC5B5B"/>
<path d="M39.9922 13.6097L9.28867 27.0541L5.40734 26.399C5.31748 26.3822 5.23539 26.3368 5.17322 26.2695C5.11105 26.2022 5.0721 26.1165 5.06212 26.0253C5.05214 25.934 5.07166 25.842 5.1178 25.7627C5.16394 25.6835 5.23425 25.6212 5.31833 25.5852L34.2093 13.081C34.2731 13.0537 34.3426 13.0425 34.4118 13.0484L39.9922 13.6097Z" fill="#FC5B5B"/>
<path d="M54.8006 23.3803C54.6413 23.2038 54.5564 22.9722 54.5638 22.7341C54.5711 22.496 54.6701 22.2701 54.84 22.1039L61.1137 15.7167C61.4885 15.3351 62.0936 15.33 62.4451 15.7048L62.935 16.2277C63.2863 16.6028 63.2425 17.2074 62.8385 17.5577L56.0751 23.4221C55.8982 23.5814 55.6669 23.6659 55.4295 23.6581C55.192 23.6503 54.9667 23.5508 54.8006 23.3803Z" fill="#FFA454"/>
<path d="M51.1322 21.1417C51.0629 21.1091 51.0008 21.0632 50.9493 21.0065C50.8978 20.9498 50.8578 20.8835 50.8318 20.8114C50.8058 20.7392 50.7942 20.6626 50.7977 20.5859C50.8012 20.5093 50.8196 20.434 50.852 20.3645L53.2204 15.0291C53.2869 14.8766 53.4109 14.7569 53.5653 14.6961C53.7196 14.6354 53.8916 14.6385 54.0436 14.705L54.4722 14.9029C54.5453 14.9374 54.6104 14.9867 54.6634 15.0478C54.7165 15.1089 54.7564 15.1803 54.7806 15.2577C54.8048 15.335 54.8128 15.4165 54.804 15.4971C54.7952 15.5777 54.7699 15.6555 54.7297 15.7258L51.9327 20.8634C51.8585 21.0023 51.7349 21.1081 51.5866 21.1596C51.4382 21.2112 51.276 21.2048 51.1322 21.1417Z" fill="#FFA454"/>
<path d="M47.2494 21.9894C46.7587 22.0729 46.291 21.6515 46.1888 21.034L44.375 10.0705C44.2667 9.41552 44.61 8.79588 45.1306 8.70746L45.8559 8.58414C46.3763 8.49557 46.8641 8.97381 46.9291 9.6361L48.0178 20.7234C48.0788 21.3473 47.7399 21.906 47.2494 21.9894Z" fill="#FFA454"/>
<path d="M26.6481 11.34C26.4267 11.3125 26.2235 11.19 26.0812 10.9983C25.9389 10.8065 25.8686 10.5605 25.8852 10.3121L26.344 0.939638C26.3713 0.379785 26.794 -0.045574 27.2736 0.00391842L27.942 0.0731386C28.4216 0.122631 28.765 0.626901 28.698 1.18281L27.5707 10.486C27.5448 10.7338 27.4344 10.9609 27.2625 11.12C27.0907 11.279 26.8706 11.3578 26.6481 11.34Z" fill="#F54A4A"/>
<path d="M22.502 12.2624C22.4078 12.286 22.309 12.2935 22.2114 12.2846C22.1137 12.2756 22.0191 12.2504 21.9329 12.2104C21.8467 12.1703 21.7707 12.1162 21.709 12.0512C21.6474 11.9861 21.6015 11.9113 21.5738 11.8311L19.3325 5.7619C19.2673 5.5893 19.2853 5.40173 19.3824 5.24036C19.4795 5.079 19.6478 4.95701 19.8505 4.90116L20.4308 4.75214C20.5304 4.72741 20.6349 4.72051 20.7377 4.73189C20.8406 4.74326 20.9395 4.77267 21.0284 4.81824C21.1172 4.86381 21.194 4.92456 21.2538 4.99665C21.3137 5.06874 21.3553 5.15062 21.3761 5.2371L23.0372 11.4554C23.0835 11.6226 23.0542 11.7984 22.955 11.948C22.8558 12.0975 22.694 12.2098 22.502 12.2624Z" fill="#F54A4A"/>
<path d="M20.0499 15.7596C19.72 16.1766 19.0566 16.1717 18.5459 15.7483L9.47858 8.23209C8.93699 7.78313 8.77717 7.03997 9.12714 6.59789L9.6149 5.98139C9.96488 5.53909 10.6837 5.57535 11.1962 6.06114L19.7757 14.1939C20.2589 14.6519 20.3798 15.3426 20.0499 15.7596Z" fill="#F54A4A"/>
</svg>
